<svg xmlns="http://www.w3.org/2000/svg">
  <defs>
      <clipPath id="clip1"><path d="M0 0h34.445v34.45H0zm0 0"/></clipPath>
<clipPath id="clip1"><path d="M0 0h34v33.402H0zm0 0"/></clipPath><clipPath id="clip2"><path d="M36 14h15.781v5H36zm0 0"/></clipPath>
 <polygon id="path-1" points="0 96.766667 120.82533 96.766667 120.82533 2.0000027 0 2.0000027"/> 
 <polygon id="path-1" points="0 107.0068 43.0533323 107.0068 43.0533323 0.0001360085 0 0.0001360085"/> 
 <polygon id="path-1" points="0 137.296 137.295997 137.296 137.295997 3.43240011e-06 0 3.43240011e-06"/> 
 <polygon id="path-1" points="0 114.1364 103.879997 114.1364 103.879997 2.0004028 0 2.0004028"/> 
 <polygon id="path-1" points="0 130.33267 129.33333 130.33267 129.33333 0.9993399 0 0.9993399"/> 
  </defs>
    <symbol id="ico-fb" viewBox="0 0 34.4473 34.4473">
      <g clip-path="url(#clip1)" id="surface1"><path d="M31.656 0H2.79A2.79 2.79 0 0 0 0 2.79v28.87a2.79 2.79 0 0 0 2.79 2.79h16.17V21.144h-2.933v-5.813h2.934v-3.836c0-.758-.152-5.851 6.164-5.851h4.46v5.812h-3.87c-.61 0-.969.332-.969.969v2.906h4.84l-.969 5.813h-3.87v13.304h6.91a2.788 2.788 0 0 0 2.788-2.789V2.79C34.445 1.25 33.2 0 31.656 0"/></g>
    </symbol>
    <symbol id="ico-googlep" viewBox="0 0 51.7799 33.4026">
      <g id="surface1"><g clip-path="url(#clip1)"><path d="M33.113 14.848h-7.5A9.28 9.28 0 0 1 16.52 25.98a9.277 9.277 0 0 1-9.277-9.282c0-5.12 4.153-9.273 9.278-9.273 2.09 0 3.996.687 5.546 1.851l5.29-5.265A16.607 16.607 0 0 0 16.52 0C7.297 0 0 7.477 0 16.7c0 9.226 7.297 16.702 16.52 16.702 9.226 0 16.703-7.476 16.703-16.703 0-.625-.04-1.246-.11-1.851"/></g><g clip-path="url(#clip2)"><path d="M51.781 18.555H36.934v-3.707H51.78zm0 0"/></g><path d="M46.21 24.125H42.5V9.277h3.71zm-14.843-5.57l1.856-1.852v-3.715H16.52v7.426h14c.433-.93.847-1.86.847-1.86"/></g>
    </symbol>
    <symbol id="ico-newest" viewBox="0 0 121 95">
       <!-- Generator: Sketch 44.1 (41455) - http://www.bohemiancoding.com/sketch --> <title>ico-newest</title> <desc>Created with Sketch.</desc>  <g id="Page-1" stroke="none" stroke-width="1" fill-rule="evenodd"> <g id="ico-newest" transform="translate(0.000000, -2.000000)">  <path d="M112.529731,18.2580023 L8.29506646,18.2580023 C6.26839984,18.2580023 4.67639988,19.8500023 4.67639988,21.8780022 L4.67639988,24.0486688 L116.148397,24.0486688 L116.148397,21.8780022 C116.148397,19.8500023 114.556397,18.2580023 112.529731,18.2580023 L112.529731,18.2580023 Z M67.9403983,6.67533592 L52.8843987,6.67533592 C54.1870653,8.55933587 54.9110653,11.0193358 55.2003986,13.9140024 L65.6243984,13.9140024 C65.9137317,11.0193358 66.6377317,8.55933587 67.9403983,6.67533592 L67.9403983,6.67533592 Z M8.29506646,92.0900005 L112.529731,92.0900005 C114.556397,92.0900005 116.148397,90.4980005 116.148397,88.4713339 L116.148397,28.3926687 L4.67639988,28.3926687 L4.67639988,88.4713339 C4.67639988,90.4980005 6.26839984,92.0900005 8.29506646,92.0900005 L8.29506646,92.0900005 Z M112.529731,96.432667 L8.29506646,96.432667 C3.9523999,96.432667 0.333733325,92.8140004 0.333733325,88.4713339 L0.333733325,21.8780022 C0.333733325,17.5340023 3.9523999,13.9140024 8.29506646,13.9140024 L50.8577321,13.9140024 C50.4230654,10.5846692 49.1203988,6.67533592 44.4883989,6.67533592 L38.696399,6.67533592 C37.5390657,6.67533592 36.5257324,5.66333594 36.5257324,4.50600264 C36.5257324,3.34600267 37.5390657,2.33400269 38.696399,2.33400269 L82.1283979,2.33400269 C83.2857313,2.33400269 84.2990646,3.34600267 84.2990646,4.50600264 C84.2990646,5.66333594 83.2857313,6.67533592 82.1283979,6.67533592 L76.3363981,6.67533592 C71.7043982,6.67533592 70.2563982,10.5846692 69.9670649,13.9140024 L112.529731,13.9140024 C116.872397,13.9140024 120.492397,17.5340023 120.492397,21.8780022 L120.492397,88.4713339 C120.492397,92.8140004 116.872397,96.432667 112.529731,96.432667 L112.529731,96.432667 Z M71.2697316,55.8980014 L63.3070651,55.8980014 L63.3070651,47.9353349 L57.5177319,47.9353349 L57.5177319,55.8980014 L49.5550654,55.8980014 L49.5550654,61.6886679 L57.5177319,61.6886679 L57.5177319,69.6513343 L63.3070651,69.6513343 L63.3070651,61.6886679 L71.2697316,61.6886679 L71.2697316,55.8980014 Z M43.7643989,42.1446684 L77.0617314,42.1446684 L77.0617314,75.4420009 L43.7643989,75.4420009 L43.7643989,42.1446684 Z" id="path22" fill-rule="nonzero" mask="url(#mask-2)" transform="translate(60.413065, 49.383335) scale(-1, 1) rotate(-180.000000) translate(-60.413065, -49.383335) "/> <path d="M112.529731,18.2580023 L8.29506646,18.2580023 C6.26839984,18.2580023 4.67639988,19.8500023 4.67639988,21.8780022 L4.67639988,24.0486688 L116.148397,24.0486688 L116.148397,21.8780022 C116.148397,19.8500023 114.556397,18.2580023 112.529731,18.2580023 Z M67.9403983,6.67533592 L52.8843987,6.67533592 C54.1870653,8.55933587 54.9110653,11.0193358 55.2003986,13.9140024 L65.6243984,13.9140024 C65.9137317,11.0193358 66.6377317,8.55933587 67.9403983,6.67533592 Z M8.29506646,92.0900005 L112.529731,92.0900005 C114.556397,92.0900005 116.148397,90.4980005 116.148397,88.4713339 L116.148397,28.3926687 L4.67639988,28.3926687 L4.67639988,88.4713339 C4.67639988,90.4980005 6.26839984,92.0900005 8.29506646,92.0900005 L8.29506646,92.0900005 Z M112.529731,96.432667 L8.29506646,96.432667 C3.9523999,96.432667 0.333733325,92.8140004 0.333733325,88.4713339 L0.333733325,21.8780022 C0.333733325,17.5340023 3.9523999,13.9140024 8.29506646,13.9140024 L50.8577321,13.9140024 C50.4230654,10.5846692 49.1203988,6.67533592 44.4883989,6.67533592 L38.696399,6.67533592 C37.5390657,6.67533592 36.5257324,5.66333594 36.5257324,4.50600264 C36.5257324,3.34600267 37.5390657,2.33400269 38.696399,2.33400269 L82.1283979,2.33400269 C83.2857313,2.33400269 84.2990646,3.34600267 84.2990646,4.50600264 C84.2990646,5.66333594 83.2857313,6.67533592 82.1283979,6.67533592 L76.3363981,6.67533592 C71.7043982,6.67533592 70.2563982,10.5846692 69.9670649,13.9140024 L112.529731,13.9140024 C116.872397,13.9140024 120.492397,17.5340023 120.492397,21.8780022 L120.492397,88.4713339 C120.492397,92.8140004 116.872397,96.432667 112.529731,96.432667 Z M71.2697316,55.8980014 L63.3070651,55.8980014 L63.3070651,47.9353349 L57.5177319,47.9353349 L57.5177319,55.8980014 L49.5550654,55.8980014 L49.5550654,61.6886679 L57.5177319,61.6886679 L57.5177319,69.6513343 L63.3070651,69.6513343 L63.3070651,61.6886679 L71.2697316,61.6886679 L71.2697316,55.8980014 Z M43.7643989,42.1446684 L77.0617314,42.1446684 L77.0617314,75.4420009 L43.7643989,75.4420009 L43.7643989,42.1446684 Z" id="path26" stroke-width="0.66666665" mask="url(#mask-2)" transform="translate(60.413065, 49.383335) scale(-1, 1) rotate(-180.000000) translate(-60.413065, -49.383335) "/> </g> </g> 
    </symbol>
    <symbol id="ico-quality" viewBox="0 0 44 107">
       <!-- Generator: Sketch 44.1 (41455) - http://www.bohemiancoding.com/sketch --> <title>ico-quality</title> <desc>Created with Sketch.</desc>  <g id="Page-1" stroke="none" stroke-width="1" fill-rule="evenodd"> <g id="ico-quality">  <path d="M12.2651997,80.8494673 C12.2651997,86.2321339 16.6451996,90.6121337 22.0265328,90.6121337 C27.407866,90.6121337 31.7891992,86.2321339 31.7891992,80.8494673 C31.7891992,75.4681341 27.407866,71.0881342 22.0265328,71.0881342 C16.6451996,71.0881342 12.2651997,75.4681341 12.2651997,80.8494673 L12.2651997,80.8494673 Z M43.0531989,10.1374691 L27.1585327,68.334801 C32.0398659,70.3361343 35.2931991,75.2174675 35.2931991,80.8494673 C35.2931991,87.1068005 31.1638659,92.4881337 24.9051994,93.9908003 L24.9051994,107.0068 L18.6478662,102.1268 L18.6478662,93.9908003 C12.390533,92.4881337 8.51053312,87.2321338 8.51053312,80.8494673 C8.51053312,75.5934675 11.514533,71.0881342 15.8945329,68.834801 L-0.00013333333,10.2628024 L2.50253327,0.0001360085 L20.7758661,67.3334677 L21.9025328,67.3334677 L22.0265328,67.3334677 L40.2998657,0.0001360085 L43.0531989,10.1374691 Z" id="path22" fill-rule="nonzero" mask="url(#mask-2)" transform="translate(21.526533, 53.503468) scale(-1, 1) rotate(-180.000000) translate(-21.526533, -53.503468) "/> </g> </g> 
    </symbol>
    <symbol id="ico-quarant" viewBox="0 0 138 138">
       <!-- Generator: Sketch 44.1 (41455) - http://www.bohemiancoding.com/sketch --> <title>ico-quarant</title> <desc>Created with Sketch.</desc>  <g id="Page-1" stroke="none" stroke-width="1" fill-rule="evenodd"> <g id="ico-quarant">  <path d="M38.7950657,71.3372016 L44.5457322,71.3372016 C49.0417321,71.3372016 52.393732,72.4132016 54.6003986,74.5652016 C56.8070652,76.7158682 57.9097319,79.5558681 57.9097319,83.087868 C57.9097319,86.9212013 56.8697319,89.9358679 54.785732,92.1278678 C52.7030653,94.3212011 49.5243988,95.417201 45.2497322,95.417201 C41.304399,95.417201 38.1190657,94.3012011 35.6910658,92.0665345 C33.2643992,89.8318679 32.0510659,86.8118679 32.0510659,83.0052014 L27.0857327,83.0052014 C27.0857327,87.9145346 28.7750659,91.9145345 32.1537325,95.0038677 C35.5323991,98.093201 39.8977323,99.6385343 45.2497322,99.6385343 C50.7377321,99.6385343 55.0483986,98.1905343 58.1790652,95.2932011 C61.3097318,92.3972011 62.8750651,88.2732012 62.8750651,82.9225347 C62.8750651,80.0265348 62.0137318,77.3572015 60.2897318,74.9158682 C58.5657319,72.474535 56.0897319,70.6612017 52.8630653,69.474535 L52.8630653,69.350535 C56.6417319,68.2758684 59.4417318,66.4825351 61.2617318,63.9718685 C63.0817318,61.4612019 63.9923984,58.4278686 63.9923984,54.8692021 C63.9923984,49.4078689 62.2897318,45.1732023 58.8830652,42.1665357 C55.4763986,39.1598691 51.0003987,37.6572025 45.4563989,37.6572025 C40.0777323,37.6572025 35.5190658,39.1385358 31.7817325,42.1052024 C28.043066,45.0692023 26.175066,49.3238689 26.175066,54.8692021 L31.1403992,54.8692021 C31.1403992,50.9518688 32.4497325,47.7998689 35.0710658,45.4145356 C37.6910657,43.027869 41.1537323,41.8358691 45.4563989,41.8358691 C49.8137321,41.8358691 53.173732,42.9252024 55.5310653,45.1052023 C57.8897319,47.2825356 59.0683985,50.4825355 59.0683985,54.7038687 C59.0683985,59.033202 57.8403986,62.1852019 55.3870653,64.1572018 C52.9310653,66.1305351 49.3177321,67.1172018 44.5457322,67.1172018 L38.7950657,67.1172018 L38.7950657,71.3372016 Z" id="path22" fill-rule="nonzero" mask="url(#mask-2)" transform="translate(45.083732, 68.647868) scale(-1, 1) rotate(-180.000000) translate(-45.083732, -68.647868) "/> <path d="M106.154931,76.1778682 C106.154931,82.493868 105.022931,87.2805346 102.762931,90.5352012 C100.498931,93.7898678 97.0935976,95.4178677 92.5415977,95.4178677 C87.9909311,95.4178677 84.5909312,93.7898678 82.3429313,90.5352012 C80.0949313,87.2805346 78.9709314,82.493868 78.9709314,76.1778682 L78.9709314,61.1578686 C78.9709314,54.8965354 80.1082647,50.1112022 82.3842646,46.8005356 C84.6602646,43.4912023 88.0735978,41.8365357 92.6242644,41.8365357 C97.1482642,41.8365357 100.533597,43.4832023 102.782931,46.7792023 C105.029597,50.0765355 106.154931,54.8685354 106.154931,61.1578686 L106.154931,76.1778682 Z M111.120264,61.9032019 C111.120264,53.9312021 109.533597,47.8978689 106.361597,43.8005357 C103.189597,39.7045358 98.6095975,37.6578692 92.6242644,37.6578692 C86.6669312,37.6578692 82.0735979,39.7112024 78.8469314,43.821869 C75.6189314,47.9312022 74.0055981,53.9592021 74.0055981,61.9032019 L74.0055981,75.3498682 C74.0055981,83.2672014 75.6055981,89.2938679 78.805598,93.4312011 C82.0042646,97.5685343 86.5842645,99.6378676 92.5415977,99.6378676 C98.5002642,99.6378676 103.086931,97.5685343 106.298931,93.4312011 C109.512264,89.2938679 111.120264,83.2672014 111.120264,75.3498682 L111.120264,61.9032019 Z" id="path26" fill-rule="nonzero" mask="url(#mask-2)" transform="translate(92.562931, 68.647868) scale(-1, 1) rotate(-180.000000) translate(-92.562931, -68.647868) "/> <path d="M68.6477316,133.596933 C32.8357325,133.596933 3.69973324,104.460934 3.69973324,68.648935 C3.69973324,32.8369359 32.8357325,3.70093667 68.6477316,3.70093667 C104.459731,3.70093667 133.59573,32.8369359 133.59573,68.648935 C133.59573,104.460934 104.459731,133.596933 68.6477316,133.596933 M68.6477316,0.00093676571 C30.7943992,0.00093676571 -0.00026666666,30.7956027 -0.00026666666,68.648935 C-0.00026666666,106.500934 30.7943992,137.2956 68.6477316,137.2956 C106.501064,137.2956 137.29573,106.500934 137.29573,68.648935 C137.29573,30.7956027 106.501064,0.00093676571 68.6477316,0.00093676571" id="path30" fill-rule="nonzero" mask="url(#mask-2)" transform="translate(68.647732, 68.648268) scale(-1, 1) rotate(-180.000000) translate(-68.647732, -68.648268) "/> </g> </g> 
    </symbol>
    <symbol id="ico-sound" viewBox="0 0 137 118">
       <!-- Generator: Sketch 44.1 (41455) - http://www.bohemiancoding.com/sketch --> <title>g14</title> <desc>Created with Sketch.</desc>  <g id="Page-1" stroke="none" stroke-width="1" fill-rule="evenodd"> <g id="ico-sound" transform="translate(0.000000, -2.000000)" fill-rule="nonzero"> <g id="g14" transform="translate(67.999998, 60.780405) scale(-1, 1) rotate(-180.000000) translate(-67.999998, -60.780405) translate(-1.333333, 0.780406)"> <path d="M81.2925313,7.24706649 L35.0218658,32.2870659 L35.0218658,87.8563978 L81.2925313,112.896397 L81.2925313,7.24706649 Z M31.0151992,33.2350658 L5.67253319,33.2350658 L5.67253319,87.1617312 L31.0151992,87.1617312 L31.0151992,33.2350658 Z M84.5645312,118.11773 C84.1191979,118.34173 83.2925313,118.655064 82.7565313,118.25373 L82.5751979,118.139064 L32.4885325,91.1683977 L3.79653324,91.1683977 C2.5418666,91.1683977 1.66719996,90.2923977 1.66719996,89.0377311 L1.66719996,31.1043992 C1.66719996,30.0990659 2.5778666,28.9750659 3.79653324,28.9750659 L32.7471992,28.9750659 L33.0698658,28.7977326 L82.3258646,2.00039995 C82.5831979,1.87373329 82.9978646,1.66573329 83.1685313,1.66573329 C83.3458646,1.66573329 83.8658646,1.80306662 84.3111979,2.02439995 C84.7858645,2.26306661 85.2991979,3.00706659 85.2991979,3.79639991 L85.2991979,116.34573 C85.2991979,117.17373 84.9965312,117.90173 84.5645312,118.11773 L84.5645312,118.11773 Z" id="path22"/> <path d="M81.6258646,6.68766559 L81.6258646,113.455798 L34.6885325,88.055023 L34.6885325,32.0884407 L81.6258646,6.68766559 Z M35.3551991,32.485691 L35.3551991,87.6577726 L80.959198,112.336996 L80.959198,7.80646738 L35.3551991,32.485691 Z M31.3485325,32.9017325 L31.3485325,87.4950645 L5.33919987,87.4950645 L5.33919987,32.9017325 L31.3485325,32.9017325 Z M30.6818659,33.5683992 L6.00586652,33.5683992 L6.00586652,86.8283978 L30.6818659,86.8283978 L30.6818659,33.5683992 Z M84.4147472,117.819945 C84.712338,117.671149 84.9658645,117.060143 84.9658645,116.34573 L84.9658645,3.79639991 C84.9658645,3.18936952 84.5714179,2.52833856 84.1628421,2.32289897 C83.8043633,2.14473283 83.3160682,1.99906662 83.1685313,1.99906662 C83.1438878,1.99906662 83.0011239,2.04956456 82.8155621,2.13447192 C82.6470484,2.21382719 82.5876619,2.24291325 82.4851631,2.2932055 L33.2304127,29.0898555 L32.9077461,29.2671889 L3.79653324,29.3083993 C2.83701797,29.3083993 2.00053328,30.2035846 2.00053328,31.1043992 L2.00053328,89.0377311 C2.00053328,90.1086475 2.72630595,90.8350644 3.79653324,90.8350644 L32.4885325,90.8350644 L82.7533514,117.857333 C83.2621416,118.215891 83.8150348,118.121597 84.4147472,117.819945 Z M32.7471992,28.6417326 L32.5866523,28.682943 L32.6616381,28.6417326 L32.7471992,28.6417326 Z M32.9105673,28.5049271 L82.1786558,1.70133362 C82.2935137,1.64463937 82.3565594,1.61376108 82.427973,1.57976127 C82.8202411,1.39918868 83.0090611,1.33239997 83.1685313,1.33239997 C83.435299,1.33239997 84.0169072,1.50590297 84.4609379,1.72659293 C85.0994271,2.04763104 85.6325312,2.94103009 85.6325312,3.79639991 L85.6325312,116.34573 C85.6325312,117.285883 85.2814755,118.131936 84.7136024,118.415873 C83.9049387,118.822627 83.1354438,118.953862 82.5783778,118.535462 L32.4044908,91.501731 L3.79653324,91.501731 C2.35798364,91.501731 1.33386663,90.4767049 1.33386663,89.0377311 L1.33386663,31.1043992 C1.33386663,29.8451203 2.45834365,28.6417326 3.79653324,28.6417326 L32.6616381,28.6417326 L32.9105673,28.5049271 Z" id="path26"/> <path d="M121.94293,60.4346652 L135.99893,74.4906648 C136.70693,75.1986648 136.70693,76.5893314 135.99893,77.2986647 C135.289597,78.0066647 133.897597,78.007998 133.189597,77.2986647 L119.153597,63.2639984 L105.117597,77.2986647 C104.408264,78.007998 103.017597,78.007998 102.308264,77.2986647 C101.600264,76.5893314 101.600264,75.1986648 102.308264,74.4906648 L116.344264,60.4546652 L102.308264,46.4186655 C101.598931,45.7093322 101.598931,44.3173322 102.308264,43.6093322 C102.761597,43.1546656 103.134931,43.0106656 103.840264,43.0106656 C104.546931,43.0106656 104.918931,43.1546656 105.373597,43.6093322 L119.408264,57.6439986 L133.444263,43.6093322 C133.897597,43.1546656 134.27093,43.0106656 134.976263,43.0106656 C135.19493,43.0106656 135.952263,43.0533323 136.509597,43.6093322 C137.21893,44.3173322 137.21893,45.7093322 136.509597,46.4186655 L121.94293,60.4346652 Z" id="path30"/> <path d="M121.466941,60.4300804 L121.711812,60.1944665 L136.273894,46.1829633 C136.853016,45.6038417 136.853016,44.4230677 136.274177,43.8453166 C135.909772,43.4817838 135.417642,43.3439989 134.976263,43.3439989 C134.355091,43.3439989 134.06793,43.4559293 133.679954,43.8450457 L119.408252,58.1153919 L105.137895,43.8450345 C104.748429,43.4555689 104.462193,43.3439989 103.840264,43.3439989 C103.219092,43.3439989 102.931931,43.4559293 102.543745,43.8452561 C101.964845,44.4230677 101.964845,45.6038417 102.543966,46.1829633 L116.815668,60.4546652 L102.543966,74.7263671 C101.966104,75.3042292 101.966104,76.4840119 102.543966,77.0629625 C103.123125,77.642121 104.302737,77.642121 104.881906,77.0629513 L119.153597,62.7926163 L119.389288,63.028285 L133.425521,77.0631843 C134.002891,77.6416418 135.183834,77.641267 135.763006,77.0631843 C136.34109,76.4840119 136.34109,75.3042292 135.763228,74.7263671 L121.466941,60.4300804 Z M136.234632,74.2549625 C137.07277,75.0931004 137.07277,76.694651 136.23441,77.5345886 C135.394466,78.3729543 133.791413,78.3734631 132.953906,77.5343782 L119.153597,63.7353805 L105.3533,77.534367 C104.513792,78.3738751 102.91207,78.3738751 102.07234,77.5341452 C101.234424,76.694651 101.234424,75.0931004 102.072562,74.2549625 L115.872859,60.4546652 L102.072562,46.6543678 C101.233017,45.8148227 101.233017,44.2115967 102.072216,43.3739764 C102.588787,42.8558865 103.046873,42.6773323 103.840264,42.6773323 C104.634232,42.6773323 105.09107,42.8553999 105.6093,43.37363 L119.408275,57.1726052 L133.208215,43.3739764 C133.724786,42.8558865 134.182872,42.6773323 134.976263,42.6773323 C135.577157,42.6773323 136.230766,42.8603274 136.745077,43.3734084 C137.584844,44.2115967 137.584844,45.8148227 136.740715,46.6588642 L122.41892,60.4392499 L136.234632,74.2549625 Z" id="path34"/> </g> </g> </g> 
    </symbol>
    <symbol id="ico-temp" viewBox="0 0 104 113">
       <!-- Generator: Sketch 44.1 (41455) - http://www.bohemiancoding.com/sketch --> <title>ico-temp</title> <desc>Created with Sketch.</desc>  <g id="Page-1" stroke="none" stroke-width="1" fill-rule="evenodd"> <g id="ico-temp" transform="translate(0.000000, -2.000000)">  <g id="g14" mask="url(#mask-2)" fill-rule="nonzero"> <g transform="translate(52.666665, 58.136401) scale(-1, 1) rotate(-180.000000) translate(-52.666665, -58.136401) translate(0.000000, 0.803070)"> <path d="M24.1350661,7.60426648 C14.3270663,7.60426648 6.38706651,15.5442663 6.38706651,25.352266 C6.38706651,31.3055992 9.42306643,36.9095991 14.3270663,40.1802657 L14.3270663,97.2735976 C14.3270663,102.761597 18.7643995,107.198931 24.2510661,107.198931 C29.7390659,107.198931 34.0590658,102.761597 34.0590658,97.2735976 L34.0590658,40.1802657 C38.9630657,36.9095991 41.9990656,31.4229325 41.9990656,25.352266 C41.8817323,15.5442663 33.9417325,7.60426648 24.1350661,7.60426648 M39.6630657,42.9815989 L39.6630657,97.2735976 C39.6630657,105.913597 32.6590659,112.802931 24.1350661,112.802931 C15.4950663,112.802931 8.60706645,105.797597 8.60706645,97.2735976 L8.60706645,42.9815989 C3.58573324,38.545599 0.66706665,32.2402659 0.66706665,25.468266 C0.66706665,12.5082664 11.1750664,2.00026662 24.1350661,2.00026662 C37.0950657,2.00026662 47.6030655,12.5082664 47.6030655,25.468266 C47.6030655,32.1242659 44.6843989,38.545599 39.6630657,42.9815989" id="path22"/> <path d="M5.72039986,25.352266 C5.72039986,15.1760765 13.9588765,6.93759983 24.1350661,6.93759983 C34.289997,6.93759983 42.5437812,15.1542798 42.6657323,25.352266 C42.6657323,31.4598965 39.6921587,37.0818221 34.7257325,40.5328577 L34.7257325,97.2735976 C34.7257325,103.15014 30.0873198,107.865597 24.2510661,107.865597 C18.3959899,107.865597 13.6603997,103.129567 13.6603997,97.2735976 L13.6603997,40.5327171 C8.72733457,37.1002066 5.72039986,31.3850478 5.72039986,25.352266 Z M24.1350661,8.27093313 C14.6952561,8.27093313 7.05373316,15.9124561 7.05373316,25.352266 C7.05373316,31.0585443 9.95812486,36.465116 14.6969708,39.6256351 L14.993733,39.8235572 L14.993733,97.2735976 C14.993733,102.393215 19.1323972,106.532264 24.2510661,106.532264 C29.3459788,106.532264 33.3923992,102.418632 33.3923992,97.2735976 L33.3923992,39.8235572 L33.6891613,39.6256351 C38.4645294,36.440758 41.332399,31.1328303 41.3324467,25.3602408 C41.2192512,15.8981289 33.5576131,8.27093313 24.1350661,8.27093313 Z M38.996399,42.6809961 L39.2216819,42.4819743 C44.1047268,38.1681425 46.9363988,31.9265728 46.9363988,25.468266 C46.9363988,12.8764562 36.7268759,2.66693327 24.1350661,2.66693327 C11.5432562,2.66693327 1.3337333,12.8764562 1.3337333,25.468266 C1.3337333,31.9997116 4.13266783,38.1392212 9.04845021,42.4819743 L9.2737331,42.6809961 L9.2737331,97.2735976 C9.2737331,105.470628 15.9042681,112.136264 24.1350661,112.136264 C32.3315459,112.136264 38.996399,105.504934 38.996399,97.2735976 L38.996399,42.6809961 Z M40.3297323,97.2735976 C40.3297323,106.242823 33.0664247,113.469597 24.1350661,113.469597 C15.166308,113.469597 7.9403998,106.205436 7.9403998,97.2735976 L7.9403998,43.2797446 C2.87937982,38.6976397 0.00039999999,32.2835239 0.00039999999,25.468266 C0.00039999999,12.1400765 10.8068766,1.33359997 24.1350661,1.33359997 C37.4632556,1.33359997 48.2697321,12.1400765 48.2697321,25.468266 C48.2697321,32.2099526 45.3601205,38.721871 40.3297323,43.2796677 L40.3297323,97.2735976 Z" id="path26" fill="#000000"/> <path d="M28.1129326,36.0495991 L27.6715993,36.2082658 L27.6715993,97.1575976 C27.6715993,99.1402642 26.118266,100.693597 24.1355994,100.693597 C22.1515994,100.693597 20.5982662,99.1402642 20.5982662,97.1575976 L20.5982662,36.2149324 L20.1662662,36.0535991 C15.6755996,34.3695991 12.6595997,30.0695992 12.6595997,25.352266 C12.6595997,19.0229329 17.8075996,13.874933 24.1355994,13.874933 C30.4635992,13.874933 35.6115991,19.0229329 35.6115991,25.352266 C35.6115991,30.1402659 32.5982659,34.4402658 28.1129326,36.0495991" id="path30"/> <path d="M24.1350661,13.8750663 C17.8070662,13.8750663 12.6590664,19.0230662 12.6590664,25.351066 C12.6590664,30.0697326 15.6763996,34.3697325 20.1657328,36.0537324 L20.5990662,36.2150658 L20.5990662,97.1577309 C20.5990662,99.1403975 22.1523994,100.693731 24.1350661,100.693731 C26.1177327,100.693731 27.671066,99.1403975 27.671066,97.1577309 L27.671066,36.2083991 L28.1123993,36.0497324 C32.5977325,34.4403991 35.6110658,30.1403992 35.6110658,25.351066 C35.6110658,19.0230662 30.4630659,13.8750663 24.1350661,13.8750663 M29.0043993,37.1363991 L29.0043993,97.1577309 C29.0043993,99.8430642 26.8203993,102.027064 24.1350661,102.027064 C21.4497328,102.027064 19.2657329,99.8430642 19.2657329,97.1577309 L19.2657329,37.1297324 C14.4963996,35.1443991 11.3257331,30.4683992 11.3257331,25.351066 C11.3257331,18.2883995 17.0723996,12.541733 24.1350661,12.541733 C31.1977326,12.541733 36.9443991,18.2883995 36.9443991,25.351066 C36.9443991,30.5430659 33.7737325,35.2203991 29.0043993,37.1363991" id="path34" fill="#000000"/> <path d="M77.2594647,98.4421309 C70.4874649,98.4421309 65.0007984,92.954131 65.0007984,86.1821312 C65.0007984,79.4101313 70.4874649,73.9221315 77.2594647,73.9221315 C84.0314646,73.9221315 89.5194644,79.4101313 89.5194644,86.1821312 C89.5194644,92.954131 84.0314646,98.4421309 77.2594647,98.4421309" id="path38"/> <path d="M77.2594647,101.944797 C78.3114647,101.944797 79.1274647,102.762131 79.1274647,103.812797 L79.1274647,111.051464 C79.1274647,112.102131 78.3101314,112.919464 77.2594647,112.919464 C76.2087981,112.919464 75.3914648,112.102131 75.3914648,111.051464 L75.3914648,103.812797 C75.5087981,102.762131 76.3261314,101.944797 77.2594647,101.944797" id="path42"/> <path d="M63.5991984,97.2742642 C63.9498651,96.9235976 64.4165317,96.6902642 64.8831984,96.6902642 C65.349865,96.6902642 65.817865,96.9235976 66.1671983,97.2742642 C66.8685317,97.9742642 66.8685317,99.1422642 66.1671983,99.8435975 L61.0298651,104.980931 C60.3298652,105.680931 59.1618652,105.680931 58.4618652,104.980931 C57.7618652,104.279597 57.7618652,103.111597 58.4618652,102.411597 L63.5991984,97.2742642 Z" id="path46"/> <path d="M61.6142651,86.1823978 C61.6142651,87.2330645 60.7969318,88.0503978 59.7462652,88.0503978 L52.5062654,88.0503978 C51.4555987,88.0503978 50.6395987,87.2330645 50.6395987,86.1823978 C50.6395987,85.1317312 51.4555987,84.3143979 52.5062654,84.3143979 L59.7462652,84.3143979 C60.7969318,84.4317312 61.6142651,85.2477312 61.6142651,86.1823978" id="path50"/> <path d="M63.5991984,75.0906648 L58.4618652,69.9533316 C57.7618652,69.2533316 57.7618652,68.0853316 58.4618652,67.3839983 C58.8125319,67.034665 59.2791985,66.7999983 59.7458652,66.7999983 C60.2125318,66.7999983 60.6805318,67.034665 61.0298651,67.3839983 L66.1671983,72.5213315 C66.8685317,73.2226648 66.8685317,74.3906648 66.1671983,75.0906648 C65.4671984,75.7906648 64.2991984,75.7906648 63.5991984,75.0906648" id="path54"/> <path d="M77.2594647,70.5365316 C76.2087981,70.5365316 75.3914648,69.7191983 75.3914648,68.6685316 L75.3914648,61.4298651 C75.3914648,60.3791985 76.2087981,59.5618652 77.2594647,59.5618652 C78.3114647,59.5618652 79.1274647,60.3791985 79.1274647,61.4298651 L79.1274647,68.6685316 C79.1274647,69.7191983 78.3101314,70.5365316 77.2594647,70.5365316" id="path58"/> <path d="M91.0374644,75.0906648 C90.3374644,75.7906648 89.1694644,75.7906648 88.4681311,75.0906648 C87.7681311,74.3906648 87.7681311,73.2226648 88.4681311,72.5213315 L93.6054643,67.3839983 C93.956131,67.034665 94.4227976,66.7999983 94.8907976,66.7999983 C95.3574643,66.7999983 95.8241309,67.034665 96.1747976,67.3839983 C96.8747976,68.0853316 96.8747976,69.2533316 96.1747976,69.9533316 L91.0374644,75.0906648 Z" id="path62"/> <path d="M102.011997,88.0502645 L94.773331,88.0502645 C93.7226643,88.0502645 92.905331,87.2329312 92.905331,86.1822645 C92.905331,85.1315979 93.7226643,84.3142646 94.773331,84.3142646 L102.011997,84.3142646 C103.062664,84.3142646 103.879997,85.1315979 103.879997,86.1822645 C103.879997,87.2329312 103.062664,88.0502645 102.011997,88.0502645" id="path66"/> <path d="M89.7529311,96.8074642 C90.2195977,96.8074642 90.6862644,97.0407976 91.0369311,97.3901309 L96.1742643,102.528797 C96.8742642,103.228797 96.8742642,104.396797 96.1742643,105.096797 C95.4742643,105.798131 94.3062643,105.798131 93.6062643,105.096797 L88.4689311,99.9594642 C87.7675978,99.2594642 87.7675978,98.0914642 88.4689311,97.3901309 C88.8182644,96.9234642 89.2849311,96.8074642 89.7529311,96.8074642" id="path70"/> </g> </g> </g> </g> 
    </symbol>
    <symbol id="ico-time" viewBox="0 0 130 130">
       <!-- Generator: Sketch 44.1 (41455) - http://www.bohemiancoding.com/sketch --> <title>ico-time</title> <desc>Created with Sketch.</desc>  <g id="Page-1" stroke="none" stroke-width="1" fill-rule="evenodd"> <g id="ico-time" transform="translate(0.000000, -1.000000)">  <g id="g14" mask="url(#mask-2)" fill-rule="nonzero"> <g transform="translate(64.666665, 64.999338) scale(-1, 1) rotate(-180.000000) translate(-64.666665, -64.999338) translate(-1.333333, -0.333993)"> <path d="M65.9999983,58.0983985 C62.3786651,58.0983985 59.4319985,61.0437318 59.4319985,64.6663984 C59.4319985,68.2877316 62.3786651,71.2343982 65.9999983,71.2343982 C69.6213316,71.2343982 72.5679982,68.2877316 72.5679982,64.6663984 C72.5679982,61.0437318 69.6213316,58.0983985 65.9999983,58.0983985 M91.597331,92.551731 L71.9959982,73.3103982 L71.3333315,73.7023982 C70.5093316,74.1890648 69.6279983,74.5597315 68.7119983,74.8037315 L67.9693316,75.0010648 L67.9693316,110.942397 C67.9693316,112.029064 67.0853317,112.913064 65.9999983,112.913064 C64.914665,112.913064 64.0306651,112.029064 64.0306651,110.942397 L64.0306651,75.0023981 L63.2893318,74.8037315 C58.6986652,73.5743982 55.4919986,69.4050649 55.4919986,64.6650651 C55.4919986,58.8703985 60.2053318,54.1570653 65.9999983,54.1570653 C71.7946649,54.1570653 76.5079981,58.8703985 76.5079981,64.6650651 C76.5079981,66.469065 76.0333314,68.2557316 75.1373315,69.8317316 L74.7559981,70.5010649 L94.357331,89.7383978 C95.1319976,90.4997311 95.1426643,91.7503977 94.381331,92.5263977 C93.621331,93.299731 92.373331,93.311731 91.597331,92.551731" id="path22"/> <path d="M65.9999983,57.7650652 C69.8058763,57.7650652 72.9013315,60.8600866 72.9013315,64.6663984 C72.9013315,68.4718265 69.8054265,71.5677315 65.9999983,71.5677315 C62.1945702,71.5677315 59.0986652,68.4718265 59.0986652,64.6663984 C59.0986652,60.8600866 62.1941204,57.7650652 65.9999983,57.7650652 Z M65.9999983,58.4317319 C62.5622893,58.4317319 59.7653318,61.2282974 59.7653318,64.6663984 C59.7653318,68.1036367 62.56276,70.9010649 65.9999983,70.9010649 C69.4372367,70.9010649 72.2346649,68.1036367 72.2346649,64.6663984 C72.2346649,61.2282974 69.4377074,58.4317319 65.9999983,58.4317319 Z M94.1433909,92.2929547 C94.7759646,91.6481948 94.7670395,90.6084198 94.123848,89.9762986 L74.3392802,70.5591335 L74.466371,70.3360582 L74.8475557,69.666986 C75.7155351,68.1402722 76.1746648,66.4102424 76.1746648,64.6650651 C76.1746648,59.0544934 71.61057,54.4903986 65.9999983,54.4903986 C60.3894267,54.4903986 55.8253319,59.0544934 55.8253319,64.6650651 C55.8253319,69.2539625 58.9304339,73.2913851 63.3756157,74.4817591 L64.3639984,74.7466315 L64.3639984,110.942397 C64.3639984,111.844797 65.0985884,112.579731 65.9999983,112.579731 C66.9014083,112.579731 67.6359983,111.844797 67.6359983,110.942397 L67.6359983,74.744735 L67.8837321,74.6789098 L68.6261983,74.4816298 C69.5117958,74.2457283 70.3650654,73.8871407 71.163619,73.4155031 L72.046728,72.8931006 L91.8306959,92.3137143 C92.4751487,92.9447409 93.5123223,92.9350945 94.1433909,92.2929547 Z M94.5909784,89.5006584 C95.4968865,90.3909743 95.509432,91.8525312 94.6190738,92.7600415 C93.7299415,93.6647727 92.2712039,93.6782795 91.3640967,92.7898756 L71.9452684,73.7276957 L71.5028454,73.9894106 C70.6519235,74.4919778 69.742347,74.8742284 68.7975978,75.1258864 L68.302665,75.2573946 L68.302665,110.942397 C68.302665,112.212917 67.2696679,113.246397 65.9999983,113.246397 C64.7303288,113.246397 63.6973317,112.212917 63.6973317,110.942397 L63.6973317,75.2581648 L63.2031066,75.1257196 C58.466752,73.8573725 55.1586653,69.5560181 55.1586653,64.6650651 C55.1586653,58.6863036 60.0212369,53.823732 65.9999983,53.823732 C71.9787598,53.823732 76.8413314,58.6863036 76.8413314,64.6650651 C76.8413314,66.5259801 76.3520772,68.3695211 75.4269586,69.9967383 L75.172716,70.4429963 L94.5909784,89.5006584 Z" id="path26"/> <path d="M65.9999983,4.27213323 C32.6986658,4.27213323 5.60666653,31.3641325 5.60666653,64.6654651 C5.60666653,97.9667976 32.6986658,125.06013 65.9999983,125.06013 C99.3013309,125.06013 126.39333,97.9667976 126.39333,64.6654651 C126.39333,31.3641325 99.3013309,4.27213323 65.9999983,4.27213323 M65.9999983,128.998797 C30.5266659,128.998797 1.66666662,100.138797 1.66666662,64.6654651 C1.66666662,29.1921326 30.5266659,0.333466658 65.9999983,0.333466658 C101.473331,0.333466658 130.33333,29.1921326 130.33333,64.6654651 C130.33333,100.138797 101.473331,128.998797 65.9999983,128.998797" id="path30"/> <path d="M65.9999983,3.9387999 C99.4854258,3.9387999 126.726663,31.1800376 126.726663,64.6654651 C126.726663,98.151144 99.4851743,125.393464 65.9999983,125.393464 C32.5148224,125.393464 5.2733332,98.151144 5.2733332,64.6654651 C5.2733332,31.1800376 32.5145709,3.9387999 65.9999983,3.9387999 Z M65.9999983,4.60546655 C32.8827608,4.60546655 5.93999985,31.5482275 5.93999985,64.6654651 C5.93999985,97.7829587 32.8830168,124.726797 65.9999983,124.726797 C99.1169799,124.726797 126.059997,97.7829587 126.059997,64.6654651 C126.059997,31.5482275 99.1172359,4.60546655 65.9999983,4.60546655 Z M65.9999983,128.665463 C101.289236,128.665463 129.999997,99.9547026 129.999997,64.6654651 C129.999997,29.3764834 101.289492,0.666799983 65.9999983,0.666799983 C30.7105049,0.666799983 1.99999995,29.3764834 1.99999995,64.6654651 C1.99999995,99.9547026 30.7107608,128.665463 65.9999983,128.665463 Z M65.9999983,129.33213 C30.342571,129.33213 1.3333333,100.322892 1.3333333,64.6654651 C1.3333333,29.0082893 30.3423194,0.00013333333 65.9999983,0.00013333333 C101.657677,0.00013333333 130.666663,29.0082893 130.666663,64.6654651 C130.666663,100.322892 101.657426,129.33213 65.9999983,129.33213 Z" id="path34"/> </g> </g> </g> </g> 
    </symbol>
    <symbol id="ico-yt" viewBox="0 0 501 209">
      <title>ico-yt</title><g id="Page-1" fill-rule="evenodd"><g id="ico-yt" fill-rule="nonzero"><path d="M283 208.476c-22.6-.9-42.1-2.5-47.4-3.9-19.3-5-28.5-19.8-31.6-51-1.8-17.9-2.4-61-1.1-81.5 1.5-23.3 2.4-29.8 5.6-39.7 5.8-18.6 15.5-25.8 38.5-28.8 34.1-4.6 190.7-4.1 217 .5 8.2 1.5 17.2 6.3 22.3 12 11.2 12.5 14.7 33.6 14.7 89.1 0 61.1-4.3 81.2-19.9 92.9-7.3 5.5-15.6 7.8-33.1 9.1-13.5 1-146.1 2-165 1.3zm7-43.9v-9.5h-22v-115h-20v115h-21v19h63v-9.5zm83-12.1v-21.7l4.9 4.6c9.7 9.1 21.1 8.8 26.6-.7 4.1-7.1 4.7-13.6 4.3-49.1-.3-32.9-.3-33-2.8-38-3.1-6.1-7.3-8.7-13.9-8.7-5.5 0-9.6 1.8-15.2 6.9l-3.9 3.5v-9.2h-18v134h18v-21.6zm87-13c2.2-.9 6-3.8 8.4-6.5 6.2-6.8 7.6-12.8 7.6-31.2v-14.7h-36v-10.7c0-13.9 1.1-17.9 5.4-20 2.9-1.3 3.7-1.4 6.2-.2 3.9 1.9 5.4 5.3 5.4 12.7v6.2h19v-6.8c0-18.9-10.4-29.9-28.1-29.5-10.9.2-19.6 6-24.3 16.2-2 4.4-2.1 6.2-2.1 35.1 0 29.7.1 30.6 2.3 35.5 6.5 14.1 21.4 19.8 36.2 13.9zm-154-40.3c0-36.3.2-41.1 1.6-42.6 2.2-2.2 5.2-1.1 9.7 3.5l3.7 3.9v76.1h19v-100h-19v10.3l-4.4-4.1c-5.9-5.5-10.2-7.5-15.7-7.6-5.5 0-9.1 2.1-11.6 6.7-1.6 2.9-1.8 7.4-2.1 49l-.3 45.7H306v-40.9z" id="Shape" transform="matrix(1 0 0 -1 0 209.076)"/><path d="M377.3 151.792l-4.3-2.1v-61.6l4.7-2.3c4.2-2 4.9-2.1 7.2-.8 4.4 2.5 5 6.3 5 33.9.1 27.9-.5 32.5-4.5 34-3.3 1.3-3.3 1.3-8.1-1.1z" id="Shape" transform="matrix(1 0 0 -1 0 237.892)"/><path d="M444.3 105.95c-2.9-1.4-4.3-6.3-4.3-15v-6.8h17v6.8c0 9-1.4 13.6-4.6 15-3 1.4-5.2 1.4-8.1 0z" id="Shape" transform="matrix(1 0 0 -1 0 191.15)"/><path d="M.3 167.93c.2-.8 5.5-17.5 11.6-37.3 6.2-19.8 11.6-37.3 12.2-38.9.5-1.6.9-15.2.9-30.2v-27.4h20v54.5l12.5 40c6.9 21.9 12.5 40.1 12.5 40.2 0 .2-4.8.2-10.7.1l-10.6-.3-6.6-24.7c-3.6-13.7-6.8-24.8-7.1-24.8-.3 0-3.5 11.1-7.1 24.8l-6.6 24.7-10.7.3c-8.6.2-10.7 0-10.3-1z" id="Shape" transform="matrix(1 0 0 -1 0 203.13)"/><path d="M85 169.736c-7.6-2.3-12.7-6.9-16.2-14.6-2.2-4.8-2.3-6.2-2.6-33.3-.2-18.4.1-30.1.8-33.7 1.6-7.6 6.3-14.1 13-17.9 4.8-2.7 6.5-3.1 13-3.1s8.2.4 13 3.1c6.7 3.7 11.4 10.2 13 17.9.7 3.6 1 15.3.8 33.7-.3 27.3-.4 28.5-2.7 33.5-3 6.8-8.6 11.8-15.2 13.7-5.5 1.7-12.7 1.9-16.9.7zm13.6-19.2c1.8-2 1.9-4 1.9-32.1v-30l-2.8-2.4c-1.5-1.3-3.7-2.4-4.7-2.4s-3.2 1.1-4.7 2.4l-2.8 2.4v30c0 28.1.1 30.1 1.9 32.1 1.3 1.4 3.1 2.1 5.6 2.1 2.5 0 4.3-.7 5.6-2.1z" id="Shape" transform="matrix(1 0 0 -1 0 237.636)"/><path d="M134.1 125.7c0-39.6.2-45.3 1.7-49.2 2.3-5.9 5.9-8.5 11.9-8.5 5.7.1 9.9 2.1 15.9 7.6l4.4 4.1V69.4h19v101h-19V93.3l-3.7-3.9c-4.5-4.6-7.5-5.7-9.7-3.5-1.4 1.5-1.6 6.4-1.6 43.1v41.4h-19l.1-44.7z" id="Shape" transform="matrix(1 0 0 -1 0 238.4)"/></g></g>
    </symbol></svg>