<svg xmlns="http://www.w3.org/2000/svg" width="45.93" height="45.93" viewBox="0 0 34.4473 34.4473"><defs><clipPath id="clip1"><path d="M0 0h34.445v34.45H0zm0 0"/></clipPath></defs><g clip-path="url(#clip1)" id="surface1"><path d="M31.656 0H2.79A2.79 2.79 0 0 0 0 2.79v28.87a2.79 2.79 0 0 0 2.79 2.79h16.17V21.144h-2.933v-5.813h2.934v-3.836c0-.758-.152-5.851 6.164-5.851h4.46v5.812h-3.87c-.61 0-.969.332-.969.969v2.906h4.84l-.969 5.813h-3.87v13.304h6.91a2.788 2.788 0 0 0 2.788-2.789V2.79C34.445 1.25 33.2 0 31.656 0"/></g></svg>