<svg xmlns="http://www.w3.org/2000/svg" width="69.04" height="44.537" viewBox="0 0 51.7799 33.4026"><defs><clipPath id="clip1"><path d="M0 0h34v33.402H0zm0 0"/></clipPath><clipPath id="clip2"><path d="M36 14h15.781v5H36zm0 0"/></clipPath></defs><g id="surface1"><g clip-path="url(#clip1)"><path d="M33.113 14.848h-7.5A9.28 9.28 0 0 1 16.52 25.98a9.277 9.277 0 0 1-9.277-9.282c0-5.12 4.153-9.273 9.278-9.273 2.09 0 3.996.687 5.546 1.851l5.29-5.265A16.607 16.607 0 0 0 16.52 0C7.297 0 0 7.477 0 16.7c0 9.226 7.297 16.702 16.52 16.702 9.226 0 16.703-7.476 16.703-16.703 0-.625-.04-1.246-.11-1.851"/></g><g clip-path="url(#clip2)"><path d="M51.781 18.555H36.934v-3.707H51.78zm0 0"/></g><path d="M46.21 24.125H42.5V9.277h3.71zm-14.843-5.57l1.856-1.852v-3.715H16.52v7.426h14c.433-.93.847-1.86.847-1.86"/></g></svg>