<?xml version="1.0" encoding="UTF-8"?>
<svg width="137px" height="118px" viewBox="0 0 137 118" version="1.1" xmlns="http://www.w3.org/2000/svg" xmlns:xlink="http://www.w3.org/1999/xlink">
    <!-- Generator: Sketch 44.1 (41455) - http://www.bohemiancoding.com/sketch -->
    <title>g14</title>
    <desc>Created with Sketch.</desc>
    <defs></defs>
    <g id="Page-1" stroke="none" stroke-width="1" fill-rule="evenodd">
        <g id="ico-sound" transform="translate(0.000000, -2.000000)" fill-rule="nonzero">
            <g id="g14" transform="translate(67.999998, 60.780405) scale(-1, 1) rotate(-180.000000) translate(-67.999998, -60.780405) translate(-1.333333, 0.780406)">
                <path d="M81.2925313,7.24706649 L35.0218658,32.2870659 L35.0218658,87.8563978 L81.2925313,112.896397 L81.2925313,7.24706649 Z M31.0151992,33.2350658 L5.67253319,33.2350658 L5.67253319,87.1617312 L31.0151992,87.1617312 L31.0151992,33.2350658 Z M84.5645312,118.11773 C84.1191979,118.34173 83.2925313,118.655064 82.7565313,118.25373 L82.5751979,118.139064 L32.4885325,91.1683977 L3.79653324,91.1683977 C2.5418666,91.1683977 1.66719996,90.2923977 1.66719996,89.0377311 L1.66719996,31.1043992 C1.66719996,30.0990659 2.5778666,28.9750659 3.79653324,28.9750659 L32.7471992,28.9750659 L33.0698658,28.7977326 L82.3258646,2.00039995 C82.5831979,1.87373329 82.9978646,1.66573329 83.1685313,1.66573329 C83.3458646,1.66573329 83.8658646,1.80306662 84.3111979,2.02439995 C84.7858645,2.26306661 85.2991979,3.00706659 85.2991979,3.79639991 L85.2991979,116.34573 C85.2991979,117.17373 84.9965312,117.90173 84.5645312,118.11773 L84.5645312,118.11773 Z" id="path22"></path>
                <path d="M81.6258646,6.68766559 L81.6258646,113.455798 L34.6885325,88.055023 L34.6885325,32.0884407 L81.6258646,6.68766559 Z M35.3551991,32.485691 L35.3551991,87.6577726 L80.959198,112.336996 L80.959198,7.80646738 L35.3551991,32.485691 Z M31.3485325,32.9017325 L31.3485325,87.4950645 L5.33919987,87.4950645 L5.33919987,32.9017325 L31.3485325,32.9017325 Z M30.6818659,33.5683992 L6.00586652,33.5683992 L6.00586652,86.8283978 L30.6818659,86.8283978 L30.6818659,33.5683992 Z M84.4147472,117.819945 C84.712338,117.671149 84.9658645,117.060143 84.9658645,116.34573 L84.9658645,3.79639991 C84.9658645,3.18936952 84.5714179,2.52833856 84.1628421,2.32289897 C83.8043633,2.14473283 83.3160682,1.99906662 83.1685313,1.99906662 C83.1438878,1.99906662 83.0011239,2.04956456 82.8155621,2.13447192 C82.6470484,2.21382719 82.5876619,2.24291325 82.4851631,2.2932055 L33.2304127,29.0898555 L32.9077461,29.2671889 L3.79653324,29.3083993 C2.83701797,29.3083993 2.00053328,30.2035846 2.00053328,31.1043992 L2.00053328,89.0377311 C2.00053328,90.1086475 2.72630595,90.8350644 3.79653324,90.8350644 L32.4885325,90.8350644 L82.7533514,117.857333 C83.2621416,118.215891 83.8150348,118.121597 84.4147472,117.819945 Z M32.7471992,28.6417326 L32.5866523,28.682943 L32.6616381,28.6417326 L32.7471992,28.6417326 Z M32.9105673,28.5049271 L82.1786558,1.70133362 C82.2935137,1.64463937 82.3565594,1.61376108 82.427973,1.57976127 C82.8202411,1.39918868 83.0090611,1.33239997 83.1685313,1.33239997 C83.435299,1.33239997 84.0169072,1.50590297 84.4609379,1.72659293 C85.0994271,2.04763104 85.6325312,2.94103009 85.6325312,3.79639991 L85.6325312,116.34573 C85.6325312,117.285883 85.2814755,118.131936 84.7136024,118.415873 C83.9049387,118.822627 83.1354438,118.953862 82.5783778,118.535462 L32.4044908,91.501731 L3.79653324,91.501731 C2.35798364,91.501731 1.33386663,90.4767049 1.33386663,89.0377311 L1.33386663,31.1043992 C1.33386663,29.8451203 2.45834365,28.6417326 3.79653324,28.6417326 L32.6616381,28.6417326 L32.9105673,28.5049271 Z" id="path26"></path>
                <path d="M121.94293,60.4346652 L135.99893,74.4906648 C136.70693,75.1986648 136.70693,76.5893314 135.99893,77.2986647 C135.289597,78.0066647 133.897597,78.007998 133.189597,77.2986647 L119.153597,63.2639984 L105.117597,77.2986647 C104.408264,78.007998 103.017597,78.007998 102.308264,77.2986647 C101.600264,76.5893314 101.600264,75.1986648 102.308264,74.4906648 L116.344264,60.4546652 L102.308264,46.4186655 C101.598931,45.7093322 101.598931,44.3173322 102.308264,43.6093322 C102.761597,43.1546656 103.134931,43.0106656 103.840264,43.0106656 C104.546931,43.0106656 104.918931,43.1546656 105.373597,43.6093322 L119.408264,57.6439986 L133.444263,43.6093322 C133.897597,43.1546656 134.27093,43.0106656 134.976263,43.0106656 C135.19493,43.0106656 135.952263,43.0533323 136.509597,43.6093322 C137.21893,44.3173322 137.21893,45.7093322 136.509597,46.4186655 L121.94293,60.4346652 Z" id="path30"></path>
                <path d="M121.466941,60.4300804 L121.711812,60.1944665 L136.273894,46.1829633 C136.853016,45.6038417 136.853016,44.4230677 136.274177,43.8453166 C135.909772,43.4817838 135.417642,43.3439989 134.976263,43.3439989 C134.355091,43.3439989 134.06793,43.4559293 133.679954,43.8450457 L119.408252,58.1153919 L105.137895,43.8450345 C104.748429,43.4555689 104.462193,43.3439989 103.840264,43.3439989 C103.219092,43.3439989 102.931931,43.4559293 102.543745,43.8452561 C101.964845,44.4230677 101.964845,45.6038417 102.543966,46.1829633 L116.815668,60.4546652 L102.543966,74.7263671 C101.966104,75.3042292 101.966104,76.4840119 102.543966,77.0629625 C103.123125,77.642121 104.302737,77.642121 104.881906,77.0629513 L119.153597,62.7926163 L119.389288,63.028285 L133.425521,77.0631843 C134.002891,77.6416418 135.183834,77.641267 135.763006,77.0631843 C136.34109,76.4840119 136.34109,75.3042292 135.763228,74.7263671 L121.466941,60.4300804 Z M136.234632,74.2549625 C137.07277,75.0931004 137.07277,76.694651 136.23441,77.5345886 C135.394466,78.3729543 133.791413,78.3734631 132.953906,77.5343782 L119.153597,63.7353805 L105.3533,77.534367 C104.513792,78.3738751 102.91207,78.3738751 102.07234,77.5341452 C101.234424,76.694651 101.234424,75.0931004 102.072562,74.2549625 L115.872859,60.4546652 L102.072562,46.6543678 C101.233017,45.8148227 101.233017,44.2115967 102.072216,43.3739764 C102.588787,42.8558865 103.046873,42.6773323 103.840264,42.6773323 C104.634232,42.6773323 105.09107,42.8553999 105.6093,43.37363 L119.408275,57.1726052 L133.208215,43.3739764 C133.724786,42.8558865 134.182872,42.6773323 134.976263,42.6773323 C135.577157,42.6773323 136.230766,42.8603274 136.745077,43.3734084 C137.584844,44.2115967 137.584844,45.8148227 136.740715,46.6588642 L122.41892,60.4392499 L136.234632,74.2549625 Z" id="path34"></path>
            </g>
        </g>
    </g>
</svg>