<?xml version="1.0" encoding="UTF-8"?>
<svg width="138px" height="138px" viewBox="0 0 138 138" version="1.1" xmlns="http://www.w3.org/2000/svg" xmlns:xlink="http://www.w3.org/1999/xlink">
    <!-- Generator: Sketch 44.1 (41455) - http://www.bohemiancoding.com/sketch -->
    <title>ico-quarant</title>
    <desc>Created with Sketch.</desc>
    <defs>
        <polygon id="path-1" points="0 137.296 137.295997 137.296 137.295997 3.43240011e-06 0 3.43240011e-06"></polygon>
    </defs>
    <g id="Page-1" stroke="none" stroke-width="1" fill-rule="evenodd">
        <g id="ico-quarant">
            <g id="path16" transform="translate(68.647998, 68.648002) scale(-1, 1) rotate(-180.000000) translate(-68.647998, -68.648002) "></g>
            <path d="M38.7950657,71.3372016 L44.5457322,71.3372016 C49.0417321,71.3372016 52.393732,72.4132016 54.6003986,74.5652016 C56.8070652,76.7158682 57.9097319,79.5558681 57.9097319,83.087868 C57.9097319,86.9212013 56.8697319,89.9358679 54.785732,92.1278678 C52.7030653,94.3212011 49.5243988,95.417201 45.2497322,95.417201 C41.304399,95.417201 38.1190657,94.3012011 35.6910658,92.0665345 C33.2643992,89.8318679 32.0510659,86.8118679 32.0510659,83.0052014 L27.0857327,83.0052014 C27.0857327,87.9145346 28.7750659,91.9145345 32.1537325,95.0038677 C35.5323991,98.093201 39.8977323,99.6385343 45.2497322,99.6385343 C50.7377321,99.6385343 55.0483986,98.1905343 58.1790652,95.2932011 C61.3097318,92.3972011 62.8750651,88.2732012 62.8750651,82.9225347 C62.8750651,80.0265348 62.0137318,77.3572015 60.2897318,74.9158682 C58.5657319,72.474535 56.0897319,70.6612017 52.8630653,69.474535 L52.8630653,69.350535 C56.6417319,68.2758684 59.4417318,66.4825351 61.2617318,63.9718685 C63.0817318,61.4612019 63.9923984,58.4278686 63.9923984,54.8692021 C63.9923984,49.4078689 62.2897318,45.1732023 58.8830652,42.1665357 C55.4763986,39.1598691 51.0003987,37.6572025 45.4563989,37.6572025 C40.0777323,37.6572025 35.5190658,39.1385358 31.7817325,42.1052024 C28.043066,45.0692023 26.175066,49.3238689 26.175066,54.8692021 L31.1403992,54.8692021 C31.1403992,50.9518688 32.4497325,47.7998689 35.0710658,45.4145356 C37.6910657,43.027869 41.1537323,41.8358691 45.4563989,41.8358691 C49.8137321,41.8358691 53.173732,42.9252024 55.5310653,45.1052023 C57.8897319,47.2825356 59.0683985,50.4825355 59.0683985,54.7038687 C59.0683985,59.033202 57.8403986,62.1852019 55.3870653,64.1572018 C52.9310653,66.1305351 49.3177321,67.1172018 44.5457322,67.1172018 L38.7950657,67.1172018 L38.7950657,71.3372016 Z" id="path22" fill-rule="nonzero" mask="url(#mask-2)" transform="translate(45.083732, 68.647868) scale(-1, 1) rotate(-180.000000) translate(-45.083732, -68.647868) "></path>
            <path d="M106.154931,76.1778682 C106.154931,82.493868 105.022931,87.2805346 102.762931,90.5352012 C100.498931,93.7898678 97.0935976,95.4178677 92.5415977,95.4178677 C87.9909311,95.4178677 84.5909312,93.7898678 82.3429313,90.5352012 C80.0949313,87.2805346 78.9709314,82.493868 78.9709314,76.1778682 L78.9709314,61.1578686 C78.9709314,54.8965354 80.1082647,50.1112022 82.3842646,46.8005356 C84.6602646,43.4912023 88.0735978,41.8365357 92.6242644,41.8365357 C97.1482642,41.8365357 100.533597,43.4832023 102.782931,46.7792023 C105.029597,50.0765355 106.154931,54.8685354 106.154931,61.1578686 L106.154931,76.1778682 Z M111.120264,61.9032019 C111.120264,53.9312021 109.533597,47.8978689 106.361597,43.8005357 C103.189597,39.7045358 98.6095975,37.6578692 92.6242644,37.6578692 C86.6669312,37.6578692 82.0735979,39.7112024 78.8469314,43.821869 C75.6189314,47.9312022 74.0055981,53.9592021 74.0055981,61.9032019 L74.0055981,75.3498682 C74.0055981,83.2672014 75.6055981,89.2938679 78.805598,93.4312011 C82.0042646,97.5685343 86.5842645,99.6378676 92.5415977,99.6378676 C98.5002642,99.6378676 103.086931,97.5685343 106.298931,93.4312011 C109.512264,89.2938679 111.120264,83.2672014 111.120264,75.3498682 L111.120264,61.9032019 Z" id="path26" fill-rule="nonzero" mask="url(#mask-2)" transform="translate(92.562931, 68.647868) scale(-1, 1) rotate(-180.000000) translate(-92.562931, -68.647868) "></path>
            <path d="M68.6477316,133.596933 C32.8357325,133.596933 3.69973324,104.460934 3.69973324,68.648935 C3.69973324,32.8369359 32.8357325,3.70093667 68.6477316,3.70093667 C104.459731,3.70093667 133.59573,32.8369359 133.59573,68.648935 C133.59573,104.460934 104.459731,133.596933 68.6477316,133.596933 M68.6477316,0.00093676571 C30.7943992,0.00093676571 -0.00026666666,30.7956027 -0.00026666666,68.648935 C-0.00026666666,106.500934 30.7943992,137.2956 68.6477316,137.2956 C106.501064,137.2956 137.29573,106.500934 137.29573,68.648935 C137.29573,30.7956027 106.501064,0.00093676571 68.6477316,0.00093676571" id="path30" fill-rule="nonzero" mask="url(#mask-2)" transform="translate(68.647732, 68.648268) scale(-1, 1) rotate(-180.000000) translate(-68.647732, -68.648268) "></path>
        </g>
    </g>
</svg>