<svg width="501" height="209" viewBox="0 0 501 209" xmlns="http://www.w3.org/2000/svg"><title>ico-yt</title><g id="Page-1" fill-rule="evenodd"><g id="ico-yt" fill-rule="nonzero"><path d="M283 208.476c-22.6-.9-42.1-2.5-47.4-3.9-19.3-5-28.5-19.8-31.6-51-1.8-17.9-2.4-61-1.1-81.5 1.5-23.3 2.4-29.8 5.6-39.7 5.8-18.6 15.5-25.8 38.5-28.8 34.1-4.6 190.7-4.1 217 .5 8.2 1.5 17.2 6.3 22.3 12 11.2 12.5 14.7 33.6 14.7 89.1 0 61.1-4.3 81.2-19.9 92.9-7.3 5.5-15.6 7.8-33.1 9.1-13.5 1-146.1 2-165 1.3zm7-43.9v-9.5h-22v-115h-20v115h-21v19h63v-9.5zm83-12.1v-21.7l4.9 4.6c9.7 9.1 21.1 8.8 26.6-.7 4.1-7.1 4.7-13.6 4.3-49.1-.3-32.9-.3-33-2.8-38-3.1-6.1-7.3-8.7-13.9-8.7-5.5 0-9.6 1.8-15.2 6.9l-3.9 3.5v-9.2h-18v134h18v-21.6zm87-13c2.2-.9 6-3.8 8.4-6.5 6.2-6.8 7.6-12.8 7.6-31.2v-14.7h-36v-10.7c0-13.9 1.1-17.9 5.4-20 2.9-1.3 3.7-1.4 6.2-.2 3.9 1.9 5.4 5.3 5.4 12.7v6.2h19v-6.8c0-18.9-10.4-29.9-28.1-29.5-10.9.2-19.6 6-24.3 16.2-2 4.4-2.1 6.2-2.1 35.1 0 29.7.1 30.6 2.3 35.5 6.5 14.1 21.4 19.8 36.2 13.9zm-154-40.3c0-36.3.2-41.1 1.6-42.6 2.2-2.2 5.2-1.1 9.7 3.5l3.7 3.9v76.1h19v-100h-19v10.3l-4.4-4.1c-5.9-5.5-10.2-7.5-15.7-7.6-5.5 0-9.1 2.1-11.6 6.7-1.6 2.9-1.8 7.4-2.1 49l-.3 45.7H306v-40.9z" id="Shape" transform="matrix(1 0 0 -1 0 209.076)"/><path d="M377.3 151.792l-4.3-2.1v-61.6l4.7-2.3c4.2-2 4.9-2.1 7.2-.8 4.4 2.5 5 6.3 5 33.9.1 27.9-.5 32.5-4.5 34-3.3 1.3-3.3 1.3-8.1-1.1z" id="Shape" transform="matrix(1 0 0 -1 0 237.892)"/><path d="M444.3 105.95c-2.9-1.4-4.3-6.3-4.3-15v-6.8h17v6.8c0 9-1.4 13.6-4.6 15-3 1.4-5.2 1.4-8.1 0z" id="Shape" transform="matrix(1 0 0 -1 0 191.15)"/><path d="M.3 167.93c.2-.8 5.5-17.5 11.6-37.3 6.2-19.8 11.6-37.3 12.2-38.9.5-1.6.9-15.2.9-30.2v-27.4h20v54.5l12.5 40c6.9 21.9 12.5 40.1 12.5 40.2 0 .2-4.8.2-10.7.1l-10.6-.3-6.6-24.7c-3.6-13.7-6.8-24.8-7.1-24.8-.3 0-3.5 11.1-7.1 24.8l-6.6 24.7-10.7.3c-8.6.2-10.7 0-10.3-1z" id="Shape" transform="matrix(1 0 0 -1 0 203.13)"/><path d="M85 169.736c-7.6-2.3-12.7-6.9-16.2-14.6-2.2-4.8-2.3-6.2-2.6-33.3-.2-18.4.1-30.1.8-33.7 1.6-7.6 6.3-14.1 13-17.9 4.8-2.7 6.5-3.1 13-3.1s8.2.4 13 3.1c6.7 3.7 11.4 10.2 13 17.9.7 3.6 1 15.3.8 33.7-.3 27.3-.4 28.5-2.7 33.5-3 6.8-8.6 11.8-15.2 13.7-5.5 1.7-12.7 1.9-16.9.7zm13.6-19.2c1.8-2 1.9-4 1.9-32.1v-30l-2.8-2.4c-1.5-1.3-3.7-2.4-4.7-2.4s-3.2 1.1-4.7 2.4l-2.8 2.4v30c0 28.1.1 30.1 1.9 32.1 1.3 1.4 3.1 2.1 5.6 2.1 2.5 0 4.3-.7 5.6-2.1z" id="Shape" transform="matrix(1 0 0 -1 0 237.636)"/><path d="M134.1 125.7c0-39.6.2-45.3 1.7-49.2 2.3-5.9 5.9-8.5 11.9-8.5 5.7.1 9.9 2.1 15.9 7.6l4.4 4.1V69.4h19v101h-19V93.3l-3.7-3.9c-4.5-4.6-7.5-5.7-9.7-3.5-1.4 1.5-1.6 6.4-1.6 43.1v41.4h-19l.1-44.7z" id="Shape" transform="matrix(1 0 0 -1 0 238.4)"/></g></g></svg>