<?xml version="1.0" encoding="UTF-8"?>
<svg width="44px" height="107px" viewBox="0 0 44 107" version="1.1" xmlns="http://www.w3.org/2000/svg" xmlns:xlink="http://www.w3.org/1999/xlink">
    <!-- Generator: Sketch 44.1 (41455) - http://www.bohemiancoding.com/sketch -->
    <title>ico-quality</title>
    <desc>Created with Sketch.</desc>
    <defs>
        <polygon id="path-1" points="0 107.0068 43.0533323 107.0068 43.0533323 0.0001360085 0 0.0001360085"></polygon>
    </defs>
    <g id="Page-1" stroke="none" stroke-width="1" fill-rule="evenodd">
        <g id="ico-quality">
            <g id="path16" transform="translate(21.526666, 53.503468) scale(-1, 1) rotate(-180.000000) translate(-21.526666, -53.503468) "></g>
            <path d="M12.2651997,80.8494673 C12.2651997,86.2321339 16.6451996,90.6121337 22.0265328,90.6121337 C27.407866,90.6121337 31.7891992,86.2321339 31.7891992,80.8494673 C31.7891992,75.4681341 27.407866,71.0881342 22.0265328,71.0881342 C16.6451996,71.0881342 12.2651997,75.4681341 12.2651997,80.8494673 L12.2651997,80.8494673 Z M43.0531989,10.1374691 L27.1585327,68.334801 C32.0398659,70.3361343 35.2931991,75.2174675 35.2931991,80.8494673 C35.2931991,87.1068005 31.1638659,92.4881337 24.9051994,93.9908003 L24.9051994,107.0068 L18.6478662,102.1268 L18.6478662,93.9908003 C12.390533,92.4881337 8.51053312,87.2321338 8.51053312,80.8494673 C8.51053312,75.5934675 11.514533,71.0881342 15.8945329,68.834801 L-0.00013333333,10.2628024 L2.50253327,0.0001360085 L20.7758661,67.3334677 L21.9025328,67.3334677 L22.0265328,67.3334677 L40.2998657,0.0001360085 L43.0531989,10.1374691 Z" id="path22" fill-rule="nonzero" mask="url(#mask-2)" transform="translate(21.526533, 53.503468) scale(-1, 1) rotate(-180.000000) translate(-21.526533, -53.503468) "></path>
        </g>
    </g>
</svg>