<?xml version="1.0" encoding="UTF-8"?>
<svg width="121px" height="95px" viewBox="0 0 121 95" version="1.1" xmlns="http://www.w3.org/2000/svg" xmlns:xlink="http://www.w3.org/1999/xlink">
    <!-- Generator: Sketch 44.1 (41455) - http://www.bohemiancoding.com/sketch -->
    <title>ico-newest</title>
    <desc>Created with Sketch.</desc>
    <defs>
        <polygon id="path-1" points="0 96.766667 120.82533 96.766667 120.82533 2.0000027 0 2.0000027"></polygon>
    </defs>
    <g id="Page-1" stroke="none" stroke-width="1" fill-rule="evenodd">
        <g id="ico-newest" transform="translate(0.000000, -2.000000)">
            <g id="path16" transform="translate(60.412665, 49.383335) scale(-1, 1) rotate(-180.000000) translate(-60.412665, -49.383335) "></g>
            <path d="M112.529731,18.2580023 L8.29506646,18.2580023 C6.26839984,18.2580023 4.67639988,19.8500023 4.67639988,21.8780022 L4.67639988,24.0486688 L116.148397,24.0486688 L116.148397,21.8780022 C116.148397,19.8500023 114.556397,18.2580023 112.529731,18.2580023 L112.529731,18.2580023 Z M67.9403983,6.67533592 L52.8843987,6.67533592 C54.1870653,8.55933587 54.9110653,11.0193358 55.2003986,13.9140024 L65.6243984,13.9140024 C65.9137317,11.0193358 66.6377317,8.55933587 67.9403983,6.67533592 L67.9403983,6.67533592 Z M8.29506646,92.0900005 L112.529731,92.0900005 C114.556397,92.0900005 116.148397,90.4980005 116.148397,88.4713339 L116.148397,28.3926687 L4.67639988,28.3926687 L4.67639988,88.4713339 C4.67639988,90.4980005 6.26839984,92.0900005 8.29506646,92.0900005 L8.29506646,92.0900005 Z M112.529731,96.432667 L8.29506646,96.432667 C3.9523999,96.432667 0.333733325,92.8140004 0.333733325,88.4713339 L0.333733325,21.8780022 C0.333733325,17.5340023 3.9523999,13.9140024 8.29506646,13.9140024 L50.8577321,13.9140024 C50.4230654,10.5846692 49.1203988,6.67533592 44.4883989,6.67533592 L38.696399,6.67533592 C37.5390657,6.67533592 36.5257324,5.66333594 36.5257324,4.50600264 C36.5257324,3.34600267 37.5390657,2.33400269 38.696399,2.33400269 L82.1283979,2.33400269 C83.2857313,2.33400269 84.2990646,3.34600267 84.2990646,4.50600264 C84.2990646,5.66333594 83.2857313,6.67533592 82.1283979,6.67533592 L76.3363981,6.67533592 C71.7043982,6.67533592 70.2563982,10.5846692 69.9670649,13.9140024 L112.529731,13.9140024 C116.872397,13.9140024 120.492397,17.5340023 120.492397,21.8780022 L120.492397,88.4713339 C120.492397,92.8140004 116.872397,96.432667 112.529731,96.432667 L112.529731,96.432667 Z M71.2697316,55.8980014 L63.3070651,55.8980014 L63.3070651,47.9353349 L57.5177319,47.9353349 L57.5177319,55.8980014 L49.5550654,55.8980014 L49.5550654,61.6886679 L57.5177319,61.6886679 L57.5177319,69.6513343 L63.3070651,69.6513343 L63.3070651,61.6886679 L71.2697316,61.6886679 L71.2697316,55.8980014 Z M43.7643989,42.1446684 L77.0617314,42.1446684 L77.0617314,75.4420009 L43.7643989,75.4420009 L43.7643989,42.1446684 Z" id="path22" fill-rule="nonzero" mask="url(#mask-2)" transform="translate(60.413065, 49.383335) scale(-1, 1) rotate(-180.000000) translate(-60.413065, -49.383335) "></path>
            <path d="M112.529731,18.2580023 L8.29506646,18.2580023 C6.26839984,18.2580023 4.67639988,19.8500023 4.67639988,21.8780022 L4.67639988,24.0486688 L116.148397,24.0486688 L116.148397,21.8780022 C116.148397,19.8500023 114.556397,18.2580023 112.529731,18.2580023 Z M67.9403983,6.67533592 L52.8843987,6.67533592 C54.1870653,8.55933587 54.9110653,11.0193358 55.2003986,13.9140024 L65.6243984,13.9140024 C65.9137317,11.0193358 66.6377317,8.55933587 67.9403983,6.67533592 Z M8.29506646,92.0900005 L112.529731,92.0900005 C114.556397,92.0900005 116.148397,90.4980005 116.148397,88.4713339 L116.148397,28.3926687 L4.67639988,28.3926687 L4.67639988,88.4713339 C4.67639988,90.4980005 6.26839984,92.0900005 8.29506646,92.0900005 L8.29506646,92.0900005 Z M112.529731,96.432667 L8.29506646,96.432667 C3.9523999,96.432667 0.333733325,92.8140004 0.333733325,88.4713339 L0.333733325,21.8780022 C0.333733325,17.5340023 3.9523999,13.9140024 8.29506646,13.9140024 L50.8577321,13.9140024 C50.4230654,10.5846692 49.1203988,6.67533592 44.4883989,6.67533592 L38.696399,6.67533592 C37.5390657,6.67533592 36.5257324,5.66333594 36.5257324,4.50600264 C36.5257324,3.34600267 37.5390657,2.33400269 38.696399,2.33400269 L82.1283979,2.33400269 C83.2857313,2.33400269 84.2990646,3.34600267 84.2990646,4.50600264 C84.2990646,5.66333594 83.2857313,6.67533592 82.1283979,6.67533592 L76.3363981,6.67533592 C71.7043982,6.67533592 70.2563982,10.5846692 69.9670649,13.9140024 L112.529731,13.9140024 C116.872397,13.9140024 120.492397,17.5340023 120.492397,21.8780022 L120.492397,88.4713339 C120.492397,92.8140004 116.872397,96.432667 112.529731,96.432667 Z M71.2697316,55.8980014 L63.3070651,55.8980014 L63.3070651,47.9353349 L57.5177319,47.9353349 L57.5177319,55.8980014 L49.5550654,55.8980014 L49.5550654,61.6886679 L57.5177319,61.6886679 L57.5177319,69.6513343 L63.3070651,69.6513343 L63.3070651,61.6886679 L71.2697316,61.6886679 L71.2697316,55.8980014 Z M43.7643989,42.1446684 L77.0617314,42.1446684 L77.0617314,75.4420009 L43.7643989,75.4420009 L43.7643989,42.1446684 Z" id="path26" stroke-width="0.66666665" mask="url(#mask-2)" transform="translate(60.413065, 49.383335) scale(-1, 1) rotate(-180.000000) translate(-60.413065, -49.383335) "></path>
        </g>
    </g>
</svg>