<?xml version="1.0" encoding="UTF-8"?>
<svg width="130px" height="130px" viewBox="0 0 130 130" version="1.1" xmlns="http://www.w3.org/2000/svg" xmlns:xlink="http://www.w3.org/1999/xlink">
    <!-- Generator: Sketch 44.1 (41455) - http://www.bohemiancoding.com/sketch -->
    <title>ico-time</title>
    <desc>Created with Sketch.</desc>
    <defs>
        <polygon id="path-1" points="0 130.33267 129.33333 130.33267 129.33333 0.9993399 0 0.9993399"></polygon>
    </defs>
    <g id="Page-1" stroke="none" stroke-width="1" fill-rule="evenodd">
        <g id="ico-time" transform="translate(0.000000, -1.000000)">
            <g id="path16" transform="translate(64.666665, 65.666005) scale(-1, 1) rotate(-180.000000) translate(-64.666665, -65.666005) "></g>
            <g id="g14" mask="url(#mask-2)" fill-rule="nonzero">
                <g transform="translate(64.666665, 64.999338) scale(-1, 1) rotate(-180.000000) translate(-64.666665, -64.999338) translate(-1.333333, -0.333993)">
                    <path d="M65.9999983,58.0983985 C62.3786651,58.0983985 59.4319985,61.0437318 59.4319985,64.6663984 C59.4319985,68.2877316 62.3786651,71.2343982 65.9999983,71.2343982 C69.6213316,71.2343982 72.5679982,68.2877316 72.5679982,64.6663984 C72.5679982,61.0437318 69.6213316,58.0983985 65.9999983,58.0983985 M91.597331,92.551731 L71.9959982,73.3103982 L71.3333315,73.7023982 C70.5093316,74.1890648 69.6279983,74.5597315 68.7119983,74.8037315 L67.9693316,75.0010648 L67.9693316,110.942397 C67.9693316,112.029064 67.0853317,112.913064 65.9999983,112.913064 C64.914665,112.913064 64.0306651,112.029064 64.0306651,110.942397 L64.0306651,75.0023981 L63.2893318,74.8037315 C58.6986652,73.5743982 55.4919986,69.4050649 55.4919986,64.6650651 C55.4919986,58.8703985 60.2053318,54.1570653 65.9999983,54.1570653 C71.7946649,54.1570653 76.5079981,58.8703985 76.5079981,64.6650651 C76.5079981,66.469065 76.0333314,68.2557316 75.1373315,69.8317316 L74.7559981,70.5010649 L94.357331,89.7383978 C95.1319976,90.4997311 95.1426643,91.7503977 94.381331,92.5263977 C93.621331,93.299731 92.373331,93.311731 91.597331,92.551731" id="path22"></path>
                    <path d="M65.9999983,57.7650652 C69.8058763,57.7650652 72.9013315,60.8600866 72.9013315,64.6663984 C72.9013315,68.4718265 69.8054265,71.5677315 65.9999983,71.5677315 C62.1945702,71.5677315 59.0986652,68.4718265 59.0986652,64.6663984 C59.0986652,60.8600866 62.1941204,57.7650652 65.9999983,57.7650652 Z M65.9999983,58.4317319 C62.5622893,58.4317319 59.7653318,61.2282974 59.7653318,64.6663984 C59.7653318,68.1036367 62.56276,70.9010649 65.9999983,70.9010649 C69.4372367,70.9010649 72.2346649,68.1036367 72.2346649,64.6663984 C72.2346649,61.2282974 69.4377074,58.4317319 65.9999983,58.4317319 Z M94.1433909,92.2929547 C94.7759646,91.6481948 94.7670395,90.6084198 94.123848,89.9762986 L74.3392802,70.5591335 L74.466371,70.3360582 L74.8475557,69.666986 C75.7155351,68.1402722 76.1746648,66.4102424 76.1746648,64.6650651 C76.1746648,59.0544934 71.61057,54.4903986 65.9999983,54.4903986 C60.3894267,54.4903986 55.8253319,59.0544934 55.8253319,64.6650651 C55.8253319,69.2539625 58.9304339,73.2913851 63.3756157,74.4817591 L64.3639984,74.7466315 L64.3639984,110.942397 C64.3639984,111.844797 65.0985884,112.579731 65.9999983,112.579731 C66.9014083,112.579731 67.6359983,111.844797 67.6359983,110.942397 L67.6359983,74.744735 L67.8837321,74.6789098 L68.6261983,74.4816298 C69.5117958,74.2457283 70.3650654,73.8871407 71.163619,73.4155031 L72.046728,72.8931006 L91.8306959,92.3137143 C92.4751487,92.9447409 93.5123223,92.9350945 94.1433909,92.2929547 Z M94.5909784,89.5006584 C95.4968865,90.3909743 95.509432,91.8525312 94.6190738,92.7600415 C93.7299415,93.6647727 92.2712039,93.6782795 91.3640967,92.7898756 L71.9452684,73.7276957 L71.5028454,73.9894106 C70.6519235,74.4919778 69.742347,74.8742284 68.7975978,75.1258864 L68.302665,75.2573946 L68.302665,110.942397 C68.302665,112.212917 67.2696679,113.246397 65.9999983,113.246397 C64.7303288,113.246397 63.6973317,112.212917 63.6973317,110.942397 L63.6973317,75.2581648 L63.2031066,75.1257196 C58.466752,73.8573725 55.1586653,69.5560181 55.1586653,64.6650651 C55.1586653,58.6863036 60.0212369,53.823732 65.9999983,53.823732 C71.9787598,53.823732 76.8413314,58.6863036 76.8413314,64.6650651 C76.8413314,66.5259801 76.3520772,68.3695211 75.4269586,69.9967383 L75.172716,70.4429963 L94.5909784,89.5006584 Z" id="path26"></path>
                    <path d="M65.9999983,4.27213323 C32.6986658,4.27213323 5.60666653,31.3641325 5.60666653,64.6654651 C5.60666653,97.9667976 32.6986658,125.06013 65.9999983,125.06013 C99.3013309,125.06013 126.39333,97.9667976 126.39333,64.6654651 C126.39333,31.3641325 99.3013309,4.27213323 65.9999983,4.27213323 M65.9999983,128.998797 C30.5266659,128.998797 1.66666662,100.138797 1.66666662,64.6654651 C1.66666662,29.1921326 30.5266659,0.333466658 65.9999983,0.333466658 C101.473331,0.333466658 130.33333,29.1921326 130.33333,64.6654651 C130.33333,100.138797 101.473331,128.998797 65.9999983,128.998797" id="path30"></path>
                    <path d="M65.9999983,3.9387999 C99.4854258,3.9387999 126.726663,31.1800376 126.726663,64.6654651 C126.726663,98.151144 99.4851743,125.393464 65.9999983,125.393464 C32.5148224,125.393464 5.2733332,98.151144 5.2733332,64.6654651 C5.2733332,31.1800376 32.5145709,3.9387999 65.9999983,3.9387999 Z M65.9999983,4.60546655 C32.8827608,4.60546655 5.93999985,31.5482275 5.93999985,64.6654651 C5.93999985,97.7829587 32.8830168,124.726797 65.9999983,124.726797 C99.1169799,124.726797 126.059997,97.7829587 126.059997,64.6654651 C126.059997,31.5482275 99.1172359,4.60546655 65.9999983,4.60546655 Z M65.9999983,128.665463 C101.289236,128.665463 129.999997,99.9547026 129.999997,64.6654651 C129.999997,29.3764834 101.289492,0.666799983 65.9999983,0.666799983 C30.7105049,0.666799983 1.99999995,29.3764834 1.99999995,64.6654651 C1.99999995,99.9547026 30.7107608,128.665463 65.9999983,128.665463 Z M65.9999983,129.33213 C30.342571,129.33213 1.3333333,100.322892 1.3333333,64.6654651 C1.3333333,29.0082893 30.3423194,0.00013333333 65.9999983,0.00013333333 C101.657677,0.00013333333 130.666663,29.0082893 130.666663,64.6654651 C130.666663,100.322892 101.657426,129.33213 65.9999983,129.33213 Z" id="path34"></path>
                </g>
            </g>
        </g>
    </g>
</svg>