<?xml version="1.0" encoding="UTF-8"?>
<svg width="104px" height="113px" viewBox="0 0 104 113" version="1.1" xmlns="http://www.w3.org/2000/svg" xmlns:xlink="http://www.w3.org/1999/xlink">
    <!-- Generator: Sketch 44.1 (41455) - http://www.bohemiancoding.com/sketch -->
    <title>ico-temp</title>
    <desc>Created with Sketch.</desc>
    <defs>
        <polygon id="path-1" points="0 114.1364 103.879997 114.1364 103.879997 2.0004028 0 2.0004028"></polygon>
    </defs>
    <g id="Page-1" stroke="none" stroke-width="1" fill-rule="evenodd">
        <g id="ico-temp" transform="translate(0.000000, -2.000000)">
            <g id="path16" transform="translate(51.939999, 58.068401) scale(-1, 1) rotate(-180.000000) translate(-51.939999, -58.068401) "></g>
            <g id="g14" mask="url(#mask-2)" fill-rule="nonzero">
                <g transform="translate(52.666665, 58.136401) scale(-1, 1) rotate(-180.000000) translate(-52.666665, -58.136401) translate(0.000000, 0.803070)">
                    <path d="M24.1350661,7.60426648 C14.3270663,7.60426648 6.38706651,15.5442663 6.38706651,25.352266 C6.38706651,31.3055992 9.42306643,36.9095991 14.3270663,40.1802657 L14.3270663,97.2735976 C14.3270663,102.761597 18.7643995,107.198931 24.2510661,107.198931 C29.7390659,107.198931 34.0590658,102.761597 34.0590658,97.2735976 L34.0590658,40.1802657 C38.9630657,36.9095991 41.9990656,31.4229325 41.9990656,25.352266 C41.8817323,15.5442663 33.9417325,7.60426648 24.1350661,7.60426648 M39.6630657,42.9815989 L39.6630657,97.2735976 C39.6630657,105.913597 32.6590659,112.802931 24.1350661,112.802931 C15.4950663,112.802931 8.60706645,105.797597 8.60706645,97.2735976 L8.60706645,42.9815989 C3.58573324,38.545599 0.66706665,32.2402659 0.66706665,25.468266 C0.66706665,12.5082664 11.1750664,2.00026662 24.1350661,2.00026662 C37.0950657,2.00026662 47.6030655,12.5082664 47.6030655,25.468266 C47.6030655,32.1242659 44.6843989,38.545599 39.6630657,42.9815989" id="path22"></path>
                    <path d="M5.72039986,25.352266 C5.72039986,15.1760765 13.9588765,6.93759983 24.1350661,6.93759983 C34.289997,6.93759983 42.5437812,15.1542798 42.6657323,25.352266 C42.6657323,31.4598965 39.6921587,37.0818221 34.7257325,40.5328577 L34.7257325,97.2735976 C34.7257325,103.15014 30.0873198,107.865597 24.2510661,107.865597 C18.3959899,107.865597 13.6603997,103.129567 13.6603997,97.2735976 L13.6603997,40.5327171 C8.72733457,37.1002066 5.72039986,31.3850478 5.72039986,25.352266 Z M24.1350661,8.27093313 C14.6952561,8.27093313 7.05373316,15.9124561 7.05373316,25.352266 C7.05373316,31.0585443 9.95812486,36.465116 14.6969708,39.6256351 L14.993733,39.8235572 L14.993733,97.2735976 C14.993733,102.393215 19.1323972,106.532264 24.2510661,106.532264 C29.3459788,106.532264 33.3923992,102.418632 33.3923992,97.2735976 L33.3923992,39.8235572 L33.6891613,39.6256351 C38.4645294,36.440758 41.332399,31.1328303 41.3324467,25.3602408 C41.2192512,15.8981289 33.5576131,8.27093313 24.1350661,8.27093313 Z M38.996399,42.6809961 L39.2216819,42.4819743 C44.1047268,38.1681425 46.9363988,31.9265728 46.9363988,25.468266 C46.9363988,12.8764562 36.7268759,2.66693327 24.1350661,2.66693327 C11.5432562,2.66693327 1.3337333,12.8764562 1.3337333,25.468266 C1.3337333,31.9997116 4.13266783,38.1392212 9.04845021,42.4819743 L9.2737331,42.6809961 L9.2737331,97.2735976 C9.2737331,105.470628 15.9042681,112.136264 24.1350661,112.136264 C32.3315459,112.136264 38.996399,105.504934 38.996399,97.2735976 L38.996399,42.6809961 Z M40.3297323,97.2735976 C40.3297323,106.242823 33.0664247,113.469597 24.1350661,113.469597 C15.166308,113.469597 7.9403998,106.205436 7.9403998,97.2735976 L7.9403998,43.2797446 C2.87937982,38.6976397 0.00039999999,32.2835239 0.00039999999,25.468266 C0.00039999999,12.1400765 10.8068766,1.33359997 24.1350661,1.33359997 C37.4632556,1.33359997 48.2697321,12.1400765 48.2697321,25.468266 C48.2697321,32.2099526 45.3601205,38.721871 40.3297323,43.2796677 L40.3297323,97.2735976 Z" id="path26" fill="#000000"></path>
                    <path d="M28.1129326,36.0495991 L27.6715993,36.2082658 L27.6715993,97.1575976 C27.6715993,99.1402642 26.118266,100.693597 24.1355994,100.693597 C22.1515994,100.693597 20.5982662,99.1402642 20.5982662,97.1575976 L20.5982662,36.2149324 L20.1662662,36.0535991 C15.6755996,34.3695991 12.6595997,30.0695992 12.6595997,25.352266 C12.6595997,19.0229329 17.8075996,13.874933 24.1355994,13.874933 C30.4635992,13.874933 35.6115991,19.0229329 35.6115991,25.352266 C35.6115991,30.1402659 32.5982659,34.4402658 28.1129326,36.0495991" id="path30"></path>
                    <path d="M24.1350661,13.8750663 C17.8070662,13.8750663 12.6590664,19.0230662 12.6590664,25.351066 C12.6590664,30.0697326 15.6763996,34.3697325 20.1657328,36.0537324 L20.5990662,36.2150658 L20.5990662,97.1577309 C20.5990662,99.1403975 22.1523994,100.693731 24.1350661,100.693731 C26.1177327,100.693731 27.671066,99.1403975 27.671066,97.1577309 L27.671066,36.2083991 L28.1123993,36.0497324 C32.5977325,34.4403991 35.6110658,30.1403992 35.6110658,25.351066 C35.6110658,19.0230662 30.4630659,13.8750663 24.1350661,13.8750663 M29.0043993,37.1363991 L29.0043993,97.1577309 C29.0043993,99.8430642 26.8203993,102.027064 24.1350661,102.027064 C21.4497328,102.027064 19.2657329,99.8430642 19.2657329,97.1577309 L19.2657329,37.1297324 C14.4963996,35.1443991 11.3257331,30.4683992 11.3257331,25.351066 C11.3257331,18.2883995 17.0723996,12.541733 24.1350661,12.541733 C31.1977326,12.541733 36.9443991,18.2883995 36.9443991,25.351066 C36.9443991,30.5430659 33.7737325,35.2203991 29.0043993,37.1363991" id="path34" fill="#000000"></path>
                    <path d="M77.2594647,98.4421309 C70.4874649,98.4421309 65.0007984,92.954131 65.0007984,86.1821312 C65.0007984,79.4101313 70.4874649,73.9221315 77.2594647,73.9221315 C84.0314646,73.9221315 89.5194644,79.4101313 89.5194644,86.1821312 C89.5194644,92.954131 84.0314646,98.4421309 77.2594647,98.4421309" id="path38"></path>
                    <path d="M77.2594647,101.944797 C78.3114647,101.944797 79.1274647,102.762131 79.1274647,103.812797 L79.1274647,111.051464 C79.1274647,112.102131 78.3101314,112.919464 77.2594647,112.919464 C76.2087981,112.919464 75.3914648,112.102131 75.3914648,111.051464 L75.3914648,103.812797 C75.5087981,102.762131 76.3261314,101.944797 77.2594647,101.944797" id="path42"></path>
                    <path d="M63.5991984,97.2742642 C63.9498651,96.9235976 64.4165317,96.6902642 64.8831984,96.6902642 C65.349865,96.6902642 65.817865,96.9235976 66.1671983,97.2742642 C66.8685317,97.9742642 66.8685317,99.1422642 66.1671983,99.8435975 L61.0298651,104.980931 C60.3298652,105.680931 59.1618652,105.680931 58.4618652,104.980931 C57.7618652,104.279597 57.7618652,103.111597 58.4618652,102.411597 L63.5991984,97.2742642 Z" id="path46"></path>
                    <path d="M61.6142651,86.1823978 C61.6142651,87.2330645 60.7969318,88.0503978 59.7462652,88.0503978 L52.5062654,88.0503978 C51.4555987,88.0503978 50.6395987,87.2330645 50.6395987,86.1823978 C50.6395987,85.1317312 51.4555987,84.3143979 52.5062654,84.3143979 L59.7462652,84.3143979 C60.7969318,84.4317312 61.6142651,85.2477312 61.6142651,86.1823978" id="path50"></path>
                    <path d="M63.5991984,75.0906648 L58.4618652,69.9533316 C57.7618652,69.2533316 57.7618652,68.0853316 58.4618652,67.3839983 C58.8125319,67.034665 59.2791985,66.7999983 59.7458652,66.7999983 C60.2125318,66.7999983 60.6805318,67.034665 61.0298651,67.3839983 L66.1671983,72.5213315 C66.8685317,73.2226648 66.8685317,74.3906648 66.1671983,75.0906648 C65.4671984,75.7906648 64.2991984,75.7906648 63.5991984,75.0906648" id="path54"></path>
                    <path d="M77.2594647,70.5365316 C76.2087981,70.5365316 75.3914648,69.7191983 75.3914648,68.6685316 L75.3914648,61.4298651 C75.3914648,60.3791985 76.2087981,59.5618652 77.2594647,59.5618652 C78.3114647,59.5618652 79.1274647,60.3791985 79.1274647,61.4298651 L79.1274647,68.6685316 C79.1274647,69.7191983 78.3101314,70.5365316 77.2594647,70.5365316" id="path58"></path>
                    <path d="M91.0374644,75.0906648 C90.3374644,75.7906648 89.1694644,75.7906648 88.4681311,75.0906648 C87.7681311,74.3906648 87.7681311,73.2226648 88.4681311,72.5213315 L93.6054643,67.3839983 C93.956131,67.034665 94.4227976,66.7999983 94.8907976,66.7999983 C95.3574643,66.7999983 95.8241309,67.034665 96.1747976,67.3839983 C96.8747976,68.0853316 96.8747976,69.2533316 96.1747976,69.9533316 L91.0374644,75.0906648 Z" id="path62"></path>
                    <path d="M102.011997,88.0502645 L94.773331,88.0502645 C93.7226643,88.0502645 92.905331,87.2329312 92.905331,86.1822645 C92.905331,85.1315979 93.7226643,84.3142646 94.773331,84.3142646 L102.011997,84.3142646 C103.062664,84.3142646 103.879997,85.1315979 103.879997,86.1822645 C103.879997,87.2329312 103.062664,88.0502645 102.011997,88.0502645" id="path66"></path>
                    <path d="M89.7529311,96.8074642 C90.2195977,96.8074642 90.6862644,97.0407976 91.0369311,97.3901309 L96.1742643,102.528797 C96.8742642,103.228797 96.8742642,104.396797 96.1742643,105.096797 C95.4742643,105.798131 94.3062643,105.798131 93.6062643,105.096797 L88.4689311,99.9594642 C87.7675978,99.2594642 87.7675978,98.0914642 88.4689311,97.3901309 C88.8182644,96.9234642 89.2849311,96.8074642 89.7529311,96.8074642" id="path70"></path>
                </g>
            </g>
        </g>
    </g>
</svg>